<svg version="1.1" id="Layer_1" xmlns="http://www.w3.org/2000/svg" xmlns:xlink="http://www.w3.org/1999/xlink" x="0px" y="0px" viewBox="0 0 500 500" style="width: 144px;" xml:space="preserve" data-imageid="reminder-note-1-62" imageName="Reminder Note 1" class="illustrations_image">
<style type="text/css">
	.st0_reminder-note-1-62{fill:#3FC1C9;}
	.st1_reminder-note-1-62{fill:url(#SVGID_1_);}
	.st2_reminder-note-1-62{fill:#68E1FD;}
	.st3_reminder-note-1-62{fill:#7F3500;}
	.st4_reminder-note-1-62{fill:#6BC630;}
	.st5_reminder-note-1-62{fill:#F2F2F2;}
	.st6_reminder-note-1-62{fill:#FCBF81;}
	.st7_reminder-note-1-62{fill:#313556;}
	.st8_reminder-note-1-62{fill:url(#SVGID_00000139288219674459817660000016021795140427104397_);}
	.st9_reminder-note-1-62{fill:#E55600;}
	.st10_reminder-note-1-62{fill:#8B93FC;}
	.st11_reminder-note-1-62{opacity:0.5;fill:#313556;enable-background:new    ;}
</style>
<path id="field_reminder-note-1-62" class="st0_reminder-note-1-62" d="M243.2,430.1L28.6,303.2c-6.8-3.8-12.7-10.1-6-14.3l215.4-124.1c3.2-2,8.1-3.3,11.4-1.4l225.3,130.7&#10;&#9;c6.8,4,8.1,15,1.2,19L271.5,429.9C262.7,434.9,252,435,243.2,430.1z"/>
<g id="plant_reminder-note-1-62">
	
		<linearGradient id="SVGID_1_-reminder-note-1-62" gradientUnits="userSpaceOnUse" x1="1211.6775" y1="221.9823" x2="1185.9374" y2="193.7523" gradientTransform="matrix(-1 0 0 -1 1297.8 502)">
		<stop offset="3.000000e-02" style="stop-color:#7F3500"/>
		<stop offset="1" style="stop-color:#3FC1C9"/>
	</linearGradient>
	<path class="st1_reminder-note-1-62" d="M103.5,277.5l25.7,15.2c0,0-7.9,13.9-27.5,22.2l-29.9-16.1"/>
	<path class="st2_reminder-note-1-62 targetColor" d="M106.5,285.4c0,9.3-10.7,16.8-23.8,16.8s-23.8-7.5-23.8-16.8s10.7-16.8,23.8-16.8S106.5,276.2,106.5,285.4z" style="fill: rgb(146, 199, 207);"/>
	<ellipse class="st3_reminder-note-1-62" cx="82.7" cy="275.5" rx="17.8" ry="7.3"/>
	<path class="st4_reminder-note-1-62" d="M82,263.3c0-3.3-0.1-6.6-0.4-9.9c-0.1-0.9-0.1-1.7-0.2-2.6c0-0.1-0.1-1.2-0.2-1.7s-0.3-1.8-0.3-1.7&#10;&#9;&#9;c-0.1-0.7-0.2-1.3-0.3-2c-1.9-11.2-6.3-21.8-12.7-31.1c-2.4,5.8-3.6,12-3.5,18.2c0,1.8,0.1,3.6,0.3,5.4c0,0.5,0,0.7,0.1,0.8&#10;&#9;&#9;s0-0.1,0.1,0.3c0.2,0.9,0.3,1.8,0.5,2.6c0.7,3.4,1.6,6.7,2.8,9.9c1.1,3,2.3,5.8,3.8,8.6c1.6,3.1,3.4,6.1,5.3,9.1&#10;&#9;&#9;c1.5,2.3,2.9,4.4,4.3,6.4C81.8,271.6,82,267.5,82,263.3z"/>
	<path class="st4_reminder-note-1-62" d="M88.1,265.9c1.8-2.8,3.5-5.6,5-8.5c0.4-0.8,0.8-1.5,1.2-2.3l0.8-1.5l0.7-1.6c0.3-0.6,0.5-1.2,0.8-1.9&#10;&#9;&#9;c4.4-10.4,6.5-21.7,6.1-33.1c-5.1,3.5-9.5,8.1-12.8,13.4c-1,1.5-1.8,3.1-2.7,4.7l-0.4,0.7c0,0,0.1-0.1-0.1,0.3&#10;&#9;&#9;c-0.3,0.8-0.7,1.7-1,2.5c-1.2,3.2-2.2,6.5-3,9.8c-0.7,3.1-1.2,6.2-1.4,9.3c-0.3,3.5-0.5,7-0.5,10.5c0,2.7,0.1,5.2,0.2,7.6&#10;&#9;&#9;C83.5,272.7,85.9,269.4,88.1,265.9z"/>
	<path class="st4_reminder-note-1-62" d="M88,274.1c1.9-0.9,3.7-1.9,5.5-3c0.5-0.3,0.9-0.6,1.4-0.9c0.1,0,0.6-0.4,0.9-0.6l0.9-0.6l1-0.8&#10;&#9;&#9;c5.8-4.2,10.5-9.6,14-15.9c-3.9,0.2-7.8,1.3-11.3,3.1c-1,0.5-2,1.1-3,1.7l-0.4,0.2c0,0,0.1,0-0.2,0.1c-0.5,0.3-0.9,0.7-1.4,1&#10;&#9;&#9;c-1.7,1.4-3.3,2.8-4.7,4.4c-1.4,1.4-2.6,3-3.8,4.6c-1.3,1.8-2.5,3.6-3.7,5.5c-0.9,1.5-1.7,2.8-2.4,4.2&#10;&#9;&#9;C83.3,276.3,85.7,275.2,88,274.1z"/>
</g>
<g id="pencil_reminder-note-1-62">
	<path class="st5_reminder-note-1-62" d="M366.8,332.3l6.1-3.4c3.7-0.3,7.1,1.7,8.8,5c3.9,7,0.5,10.7,0.5,10.7l-6.2,4.3"/>
	<path class="st6_reminder-note-1-62" d="M259.5,405.1l16.9-20.6l90.1-52.2c0,0,6.8,0.2,9.1,6.2c1.4,3.3,1.4,7,0,10.3L285.7,401L259.5,405.1z"/>
	<path class="st7_reminder-note-1-62" d="M375.9,338.5c-2.3-6-9.1-6.2-9.1-6.2l-89.8,52c5.2,4.1,9.3,9.9,9.4,16.5l89.6-52&#10;&#9;&#9;C377.3,345.5,377.3,341.8,375.9,338.5z"/>
	<path class="st7_reminder-note-1-62" d="M259.5,405.1l6.2-7.6c0,0,4.9,1.9,3.4,6.1L259.5,405.1z"/>
</g>
<g id="tasks_reminder-note-1-62">
	<path class="st7_reminder-note-1-62" d="M428.1,142.4c0,0,8.1,4.5,3.8,33.6l-49.2-29.2C382.8,146.9,402.9,128.3,428.1,142.4z"/>
	<path class="st5_reminder-note-1-62" d="M428.1,142.4c0,0-14.6-7-29.1,17c-11.4,18.8-0.2,113.5-15.5,137c-10.6,16.3-32.4,24.7-32.4,24.7l-158.2-98.7&#10;&#9;&#9;c0,0,19.9-8.2,27.4-24.5c6.3-13.7,17.3-101,21.3-116.1c2.7-10.3,12.3-15.9,22.6-15.6c8.1,0.2,14.9,4.5,22,7.9l44.1,21.2l91.2,43.8&#10;&#9;&#9;L428.1,142.4z"/>
	<ellipse class="st4_reminder-note-1-62" cx="360.8" cy="168.6" rx="9.8" ry="15.3"/>
	<path class="st7_reminder-note-1-62" d="M364.4,164.8c-1.8,2.3-3.6,4.5-5.6,6.6l-2.4-3.7c-0.9-1.4-2.9,0.2-2,1.6l2.9,4.5c0,0,0.1,0.1,0.1,0.1&#10;&#9;&#9;c0.3,0.7,1.2,1,1.9,0.7c0.1-0.1,0.3-0.2,0.4-0.3c2.4-2.5,4.7-5.2,6.8-8c0.4-0.6,0.3-1.4-0.3-1.8&#10;&#9;&#9;C365.6,164.1,364.8,164.2,364.4,164.8L364.4,164.8z"/>
	<ellipse class="st4_reminder-note-1-62" cx="358.8" cy="215.7" rx="9.8" ry="15.3"/>
	<path class="st7_reminder-note-1-62" d="M362.8,212.1c-1.8,2.3-3.6,4.5-5.6,6.6l-2.5-3.7c-0.9-1.4-2.9,0.2-2,1.6s2,3,3,4.5c0,0,0.1,0.1,0.1,0.1&#10;&#9;&#9;c0.3,0.7,1.2,1,1.9,0.7c0.1-0.1,0.3-0.2,0.4-0.3c2.4-2.5,4.7-5.2,6.8-8c0.4-0.6,0.3-1.4-0.3-1.8C364,211.3,363.2,211.5,362.8,212.1&#10;&#9;&#9;z"/>
	<ellipse class="st4_reminder-note-1-62" cx="351.1" cy="261.9" rx="9.8" ry="15.3"/>
	<path class="st7_reminder-note-1-62" d="M355.6,258.1c-1.8,2.3-3.6,4.5-5.6,6.6c-0.8-1.2-1.6-2.5-2.5-3.7c-0.9-1.4-2.9,0.2-2,1.6l2.9,4.5&#10;&#9;&#9;c0,0,0.1,0.1,0.1,0.1c0.4,0.7,1.2,1,2,0.6c0.1-0.1,0.3-0.2,0.4-0.3c2.4-2.5,4.7-5.2,6.8-8c0.4-0.6,0.2-1.4-0.4-1.8&#10;&#9;&#9;C356.8,257.5,356.1,257.6,355.6,258.1z"/>
	<path class="st7_reminder-note-1-62" d="M340.2,156.7l-67.1-33c-1.5-0.7-2.9,1.5-1.4,2.2l67.1,33C340.4,159.6,341.8,157.4,340.2,156.7z"/>
	<path class="st7_reminder-note-1-62" d="M342.9,168.5c-28.4-13.8-56.9-27.2-85.6-40.3c-1.5-0.7-2.9,1.5-1.4,2.2c28.7,13.1,57.3,26.5,85.6,40.3&#10;&#9;&#9;C343,171.4,344.4,169.2,342.9,168.5z"/>
	<path class="st7_reminder-note-1-62" d="M335.8,204.3l-69.7-36c-1.5-0.8-3,1.5-1.5,2.3l69.7,36C335.8,207.4,337.3,205.1,335.8,204.3z"/>
	<path class="st7_reminder-note-1-62" d="M338.2,216.7c-29.5-15.1-59.1-29.8-88.9-44.2c-1.6-0.8-3,1.5-1.5,2.3c29.8,14.4,59.5,29.1,88.9,44.2&#10;&#9;&#9;C338.3,219.8,339.8,217.5,338.2,216.7z"/>
	<path class="st7_reminder-note-1-62" d="M330.1,246.9l-66-35.1c-1.5-0.8-2.9,1.4-1.4,2.2l66,35.1C330.1,249.8,331.6,247.6,330.1,246.9z"/>
	<path class="st7_reminder-note-1-62" d="M332.3,258.7c-27.9-14.7-56-29.1-84.3-43.1c-1.5-0.7-2.9,1.4-1.4,2.2c28.3,14,56.4,28.4,84.3,43.1&#10;&#9;&#9;C332.4,261.7,333.8,259.5,332.3,258.7z"/>
</g>
<g id="person_reminder-note-1-62">
	
		<linearGradient id="SVGID_00000074423577203273117830000009978658636039515296_-reminder-note-1-62" gradientUnits="userSpaceOnUse" x1="-498.3126" y1="211.0965" x2="-439.3326" y2="167.6365" gradientTransform="matrix(-1 0 0 -1 -241.13 502)">
		<stop offset="3.000000e-02" style="stop-color:#7F3500"/>
		<stop offset="1" style="stop-color:#3FC1C9"/>
	</linearGradient>
	<path style="fill:url(#SVGID_00000074423577203273117830000009978658636039515296_);" d="M158.6,328.9l55-27.1l41.6,25.2l-53.8,29&#10;&#9;&#9;C189.3,348.1,170.4,337.3,158.6,328.9z"/>
	<path class="st9_reminder-note-1-62" d="M218.6,305.4c0,0,7.8-3.5,9.7-3.6s5,0.5,2.3,4c0,0-8.2,5.4-9.3,5.6s-3.7-0.7-3.8-0.4s-0.3,2.4-0.3,2.4&#10;&#9;&#9;s-6.9,2.6-7.2-2c0-0.6,1-9.1,1-9.1"/>
	<path class="st7_reminder-note-1-62" d="M209.6,285.2c1.4-8.9,3.9-17.4,4.9-26.4c0.6-5.6,1.1-11.3,1.8-16.9s2.8-11.1,4.1-16.7c0.1-0.3,0-0.5-0.3-0.7&#10;&#9;&#9;l0.2-0.6c0.7-0.7,1.4-1.3,2.1-1.9l9.6,6.5c0,0-0.1,5.9-0.4,14.4c-1.1,5-2,9.4-3.2,14.1c0.3,0.3,0.4,0.7,0.3,1.1&#10;&#9;&#9;c-3.1,14.9-5.4,29.9-6.8,45.1c0,0.5-0.4,1-0.9,1.1l-0.3,2.3c-8.4,3.2-10.2-2.4-10.2-2.4s-0.4-4.8-0.9-11.5&#10;&#9;&#9;C209.6,290.3,209.6,287.8,209.6,285.2z"/>
	<path class="st6_reminder-note-1-62" d="M269,192.9l0.2,0.1c-0.4-0.5-0.3-1.1,0.2-1.5c0.1-0.1,0.2-0.1,0.3-0.2c0.5-0.2,1-0.3,1.4-0.4&#10;&#9;&#9;c0-0.1,0.1-0.1,0.1-0.2c0.2-0.1,0.3-0.3,0.5-0.4c0.2-0.3,0.5-0.4,0.8-0.4h0.4c0.4-0.1,0.8-0.2,1.3-0.3l1.5-0.3&#10;&#9;&#9;c0-0.1,0.1-0.3,0.2-0.4c2-2.4,3.9-5,5.5-7.7c0.6-0.9,2.3-0.4,1.9,0.8c-0.4,1.3-0.9,2.5-1.5,3.7c2.2-2.2,3.3-2.7,5.3-5.1&#10;&#9;&#9;c0.8-1,2.3,0.4,1.4,1.4c-0.5,0.6-2.5,2.1-3,2.7c1-0.9,3.4-2.7,4.4-3.6s2.4,0.6,1.4,1.4c-1.6,1.4-3.1,2.8-4.6,4.3&#10;&#9;&#9;c1.4-0.9,2.8-1.8,4.1-2.7c1.1-0.8,2.1,1,1,1.8c-1.5,1.1-3.1,2.1-4.7,3.1c1-0.2,2-0.5,3-0.9c1.2-0.5,1.8,1.5,0.5,2c-1,0.4-2,0.7-3,1&#10;&#9;&#9;l-1.5,0.5c-0.6,0.2-1.2,0.4-1.7,0.8c-2,1.2-4.2,2.1-6.4,2.7l-0.4,0.3c-0.3,0.2-0.6,0.2-0.9,0c-2.7,0.5-5.5,0.3-8.1-0.6&#10;&#9;&#9;C267.3,194.4,267.8,192.4,269,192.9z"/>
	<path class="st6_reminder-note-1-62" d="M239.1,176.4c0.4-0.4,0.8-0.8,1.2-1.2c0,0,0,0.1,0,0.1c0,0.1,0.1,0.2,0.2,0.2c0.1,0,0.1,0,0.1,0l0.8-0.6&#10;&#9;&#9;c-0.1,0.1-0.1,0.2-0.1,0.3c-0.1,0.4,0.2,0.8,0.7,0.9c0.4,0.1,0.9-0.1,1-0.6c0-0.1,0-0.1,0-0.2l0.3-0.2c0,0.1,0,0.2,0,0.2&#10;&#9;&#9;c0,0.4,0.3,0.7,0.7,0.7c0.1,0,0.2,0,0.3-0.1l0.4-0.2c0.1,0.1,0.3,0.2,0.5,0.2c0.8,0,1.5,0,2.3-0.1c-0.1-0.1-0.1-0.3,0-0.5&#10;&#9;&#9;c0,0,0.1,0,0.1-0.1c1-0.3,2-0.6,3-0.8c0,0,0.1,0,0.1,0l0.1-0.1c0.4-0.6,0.6-1.3,0.6-2c0.6-0.4,1-1,1.1-1.6c-0.1,0-0.1-0.1-0.2-0.1&#10;&#9;&#9;c-0.1-0.1-0.1-0.3-0.2-0.5c-0.1-0.2-0.1-0.5-0.1-0.8c0-0.1,0.1-0.2,0.2-0.3c-0.2-0.5-0.4-1-0.6-1.5c1.3-1.1,2.2-2.5,2.7-4.1&#10;&#9;&#9;c0.1-0.4-0.1-0.8-0.5-0.9c-0.2-0.1-0.5,0-0.7,0.1c-0.5,0.4-0.9,0.8-1.4,1.2c-0.1,0-0.2,0.1-0.3,0.1c-2.3,2.3-4.8,4.4-7.3,6.4&#10;&#9;&#9;c-0.4,0.3-5.5,3.8-5.1,4.1C238.9,175,233.8,180.4,239.1,176.4z M241.8,175.1L241.8,175.1c0,0.1,0.1,0.2,0.2,0.1c0,0,0,0,0,0l0,0&#10;&#9;&#9;c0.1,0.2,0.3,0.3,0.5,0.3c-0.1,0.2-0.4,0.3-0.6,0.2C241.8,175.7,241.6,175.4,241.8,175.1L241.8,175.1z"/>
	<path class="st6_reminder-note-1-62" d="M240,175.1c0.9-0.3,1.8-0.8,2.6-1.4c0.6-0.6,1.6-0.5,2.1,0.1c0,0,0,0,0,0c0.2-0.4,0.3-0.7,0.5-1.1&#10;&#9;&#9;c0.7-1.9,3.7-0.9,3,1c-0.5,1.5-1.4,2.9-2.7,3.9c-1.3,0.8-2.8,1.4-4.3,1.7c-0.9,0.2-1.7-0.4-1.9-1.3c0-0.2,0-0.5,0-0.7&#10;&#9;&#9;c0,0-0.1-0.1-0.1-0.1C238.9,176.3,239.3,175.4,240,175.1z"/>
	<path class="st7_reminder-note-1-62" d="M244.4,177.9c1.6-0.4,2.9-1.3,3.8-2.6c0,0.1,0.1,0.2,0.2,0.2c0,0,0,0,0,0l1.5-0.4c0.3-0.1,0.6-0.2,0.9-0.3&#10;&#9;&#9;c0.6-0.4,0.5-1.2,0.4-1.8c0,0,0-0.1,0-0.1l0.3-0.2c0.5-0.3,0.8-0.8,1-1.3c0.1-0.6-0.3-1.1-0.3-1.6c0.3-0.5,0.2-1.1-0.2-1.5&#10;&#9;&#9;c-0.5-0.5-1.1-0.2-1.6,0.2c-1.1,0.7-2.1,1.5-3.2,2.3c-0.2,0.2,0.1,0.5,0.3,0.3c0.6-0.4,1.1-0.9,1.7-1.3s1.3-1.2,1.8-1.3&#10;&#9;&#9;c1.6-0.3,0.7,1.5,0.3,1.9c-0.2,0.2-0.5,0.4-0.7,0.6c-0.6,0.5-1.1,0.9-1.6,1.4l0,0c0,0-0.1,0.1-0.1,0.1c-0.2,2.4-2,4.5-4.4,5&#10;&#9;&#9;C244.1,177.6,244.1,178,244.4,177.9z M249.3,172.8c0-0.1-0.1-0.1-0.2-0.1c0-0.1,0-0.1,0-0.1c1-0.7,1.9-1.5,2.7-2.5&#10;&#9;&#9;c0.1,0.1,0.1,0.3,0.1,0.5c0.1,0.5,0,1-0.4,1.3C251.1,172.4,249.9,173.5,249.3,172.8L249.3,172.8z M248.3,175&#10;&#9;&#9;c0.3-0.6,0.6-1.3,0.7-1.9c0.5,0.6,1.2,0.3,1.8-0.1c0,0.3,0,0.6,0,0.8c-0.1,0.4-0.3,0.6-0.7,0.7C249.5,174.7,248.9,174.9,248.3,175&#10;&#9;&#9;L248.3,175z"/>
	<path class="st10_reminder-note-1-62" d="M221.4,186.1c0.6-1,21.2-13.4,22.5-15c2.7,3.5,3.1,8.3,0.8,12.1c0,0-11.6,13.5-17.6,14.7"/>
	<path class="st11_reminder-note-1-62" d="M221.4,186.1c0.6-1,21.2-13.4,22.5-15c2.7,3.5,3.1,8.3,0.8,12.1c0,0-11.6,13.5-17.6,14.7"/>
	<path class="st9_reminder-note-1-62" d="M235.8,318.3l4.6,1.7c0.3,0.9,1,1.5,1.9,1.7c0.2,0.2,0.4,0.3,0.6,0.4c1.9,0.1,3.8-0.2,5.5-0.9&#10;&#9;&#9;c2.2-0.7,10.9-4,8.5,2.2c-1.6,1.1-3.4,2.1-5,3.1c-0.9,0.6-1.8,1.1-2.8,1.6c-0.5,0.3-1.1,0.6-1.6,0.8c-1.2,0.2-4.3-0.8-4.4-0.4&#10;&#9;&#9;s-0.4,2.7-0.4,2.7s-7.9,3-8.3-2.3C234.6,328.1,235.8,318.3,235.8,318.3z"/>
	<path class="st7_reminder-note-1-62" d="M229.2,270.6c-1-15.6-1.5-31.4-4.8-46.8c-0.1-4-2.7-1.4-2.6-3c1.4-12.9,20.2,2.4,20.2,2.4&#10;&#9;&#9;c0.8,0.6,0.9,4.6,1,5.5c0.9,5,1.6,9.9,2.2,14.9c3.1,25.1,2,50.2,0.7,75.4c-4,4.1-6.6,5.3-13,2.7c-1.3-16.5-2.5-33-3.6-49.5&#10;&#9;&#9;L229.2,270.6z"/>
	<path class="st10_reminder-note-1-62" d="M218.6,211.4c-0.7-7.8-0.9-15.6-0.5-23.3c0.1-2,0.7-7,2.7-8.2c4.5-2.6,10.7-0.3,14.4,2.5&#10;&#9;&#9;c5,3.7,7.9,38.1,7.9,46.7c-6.9,2.7-15.9,3.8-23,0.8c-0.6-0.3-0.8-8.7-0.9-9.8C219.1,217.3,218.8,214.4,218.6,211.4z"/>
	<path class="st7_reminder-note-1-62" d="M232.9,200.2c0.4,5,3.9,9.2,8.8,10.5c0,0.5,0.1,3.5,0.2,3.9c-5.6-1.4-9.8-8.4-10.4-14.4&#10;&#9;&#9;C231.4,199.3,232.8,199.3,232.9,200.2z"/>
	<path class="st6_reminder-note-1-62" d="M233.1,165.2c0.4,0.2,2.6,9.9,0.1,15s-10.7-2.2-12.2-6.8S224.8,161.3,233.1,165.2z"/>
	<path class="st9_reminder-note-1-62" d="M232.7,166.4c0,0-0.6,3-3.3,3.4s-5,0.7-5.1,1.9s4.7,0.7,4.2,3.4c-0.3,1.8-0.9,3.6-1.8,5.3&#10;&#9;&#9;c-0.5,1.3-7.5-4.3-8.7-11.7s5.5-8.1,5.8-8.1s1.2-1.8,4.5-1.9s3.9,1.3,3.9,1.3c1.6-0.6,3.5,0,4.5,1.4c2.4,2.8,0.9,6.9-2.7,8&#10;&#9;&#9;L232.7,166.4z"/>
	<path class="st10_reminder-note-1-62" d="M234.9,186.2c0,0,17.7,6,23.4,4.9c4.1-0.8,12-3.8,16.1-5.3c4.6,2.6,6,8.4,4.4,13.3&#10;&#9;&#9;c-6.7,2.5-26.7,9.5-33.8,7.6c-8.6-2.3-18.2-5.8-18.2-5.8S217.7,194.7,234.9,186.2z"/>
</g>
<g id="alarm_reminder-note-1-62">
	<polygon class="st9_reminder-note-1-62" points="114.2,193.5 123.8,198.4 119.9,192.4 &#9;"/>
	<polygon class="st9_reminder-note-1-62" points="150.9,120.1 160.3,124.7 152.6,125.5 &#9;"/>
	<ellipse transform="matrix(0.444 -0.896 0.896 0.444 -66.7169 207.2704)" class="st9_reminder-note-1-62" cx="133.7" cy="157.4" rx="41.1" ry="24.2"/>
	<ellipse transform="matrix(0.444 -0.896 0.896 0.444 -65.7614 217.1262)" class="st7_reminder-note-1-62" cx="142.1" cy="161.6" rx="41.1" ry="24.2"/>
	<ellipse transform="matrix(0.444 -0.896 0.896 0.444 -65.7614 217.1262)" class="st2_reminder-note-1-62 targetColor" cx="142.1" cy="161.6" rx="36.8" ry="20.2" style="fill: rgb(146, 199, 207);"/>
	<path class="st7_reminder-note-1-62" d="M148.5,160.9l4.8-10.9c0,0,0.5-2.3-1.2-2.9s-2.7,1.5-2.7,1.5l-3.4,11.9"/>
	<path class="st7_reminder-note-1-62" d="M146.1,161.1l-14.3-7.7c-0.3-0.1-0.5-0.2-0.8-0.2c-0.9,0-1.6,0.6-1.8,1.5c-0.4,1.6,2.7,2.5,2.7,2.5l13.1,5.1"/>
	
		<ellipse transform="matrix(0.3359 -0.9419 0.9419 0.3359 -55.061 246.2281)" class="st7_reminder-note-1-62" cx="147.1" cy="162.2" rx="3.9" ry="3.1"/>
	<path class="st7_reminder-note-1-62" d="M175.8,125.1c-1.9-5.4-6.8-9.1-12.5-9.5c-1.7-0.1-2.2,2.6-0.5,2.6c4.8,0.2,8.9,3.2,10.5,7.7&#10;&#9;&#9;c0.3,0.7,1.1,1,1.8,0.6C175.6,126.4,175.9,125.7,175.8,125.1z"/>
	<path class="st7_reminder-note-1-62" d="M163.4,106.5c-1.7-0.2-2.2,2.5-0.5,2.6c9.3,0.8,17.1,7.5,19.2,16.6c0.4,1.7,2.9,0.7,2.5-0.9&#10;&#9;&#9;C182.2,114.8,173.7,107.5,163.4,106.5z"/>
	<path class="st7_reminder-note-1-62" d="M93.2,134.2c-6.1,8.8-8.4,19.7-6.1,30.2c0.4,2.1,3.6,1.8,3.2-0.4c-2.1-9.5-0.2-19.5,5.4-27.6&#10;&#9;&#9;C96.9,134.6,94.5,132.4,93.2,134.2z"/>
	<path class="st7_reminder-note-1-62" d="M97.1,143.6c-2.7,5.1-3.8,11-3,16.8c0.3,2.2,3.3,1.4,3.1-0.9c-0.6-4.9,0.3-9.8,2.7-14.1&#10;&#9;&#9;C100.8,143.4,98.2,141.6,97.1,143.6z"/>
</g>
</svg>